<mxfile host="app.diagrams.net" modified="2023-10-28T11:10:49.103Z" agent="Mozilla/5.0 (X11; Linux x86_64) AppleWebKit/537.36 (KHTML, like Gecko) Chrome/118.0.0.0 Safari/537.36" version="22.0.8" etag="HK-DIZX9fJ_mGPzVsX7p" type="github">
  <diagram name="Page-1" id="u8VjePVjNR4TN5iQuSkq">
    <mxGraphModel>
      <root>
        <mxCell id="0" />
        <mxCell id="1" parent="0" />
      </root>
    </mxGraphModel>
  </diagram>
</mxfile>
